<svg xmlns="http://www.w3.org/2000/svg" width="520" height="145" viewBox="0 0 680 230">
  <defs>
    <clipPath id="wclip3">
      <rect x="60" y="10" width="400" height="105"/>
    </clipPath>
  </defs>
  <g clip-path="url(#wclip3)">
    <rect x="60" y="82" width="400" height="22" fill="#A32D2D"/>
    <rect x="68"  y="62" width="18" height="22" rx="1" fill="#A32D2D"/>
    <rect x="94"  y="62" width="18" height="22" rx="1" fill="#A32D2D"/>
    <rect x="120" y="62" width="18" height="22" rx="1" fill="#A32D2D"/>
    <rect x="146" y="62" width="18" height="22" rx="1" fill="#A32D2D"/>
    <rect x="178" y="24" width="76" height="60" rx="2" fill="#791F1F"/>
    <rect x="181" y="16" width="14" height="12" rx="1" fill="#791F1F"/>
    <rect x="201" y="16" width="14" height="12" rx="1" fill="#791F1F"/>
    <rect x="221" y="16" width="14" height="12" rx="1" fill="#791F1F"/>
    <rect x="241" y="16" width="14" height="12" rx="1" fill="#791F1F"/>
    <rect x="200" y="36" width="32" height="20" rx="2" fill="#501313"/>
    <rect x="207" y="58" width="18" height="22" rx="2" fill="#501313"/>
    <rect x="268" y="62" width="18" height="22" rx="1" fill="#A32D2D"/>
    <rect x="294" y="62" width="18" height="22" rx="1" fill="#A32D2D"/>
    <rect x="320" y="62" width="18" height="22" rx="1" fill="#A32D2D"/>
    <rect x="346" y="62" width="18" height="22" rx="1" fill="#A32D2D"/>
    <rect x="372" y="62" width="18" height="22" rx="1" fill="#A32D2D"/>
    <rect x="398" y="62" width="18" height="22" rx="1" fill="#A32D2D"/>
    <rect x="424" y="62" width="18" height="22" rx="1" fill="#A32D2D"/>
    <rect x="60" y="102" width="400" height="3" fill="#501313" opacity="0.35"/>
  </g>
  <circle cx="610" cy="66" r="40" fill="#791F1F"/>
  <circle cx="610" cy="66" r="32" fill="#A32D2D"/>
  <circle cx="610" cy="66" r="40" fill="none" stroke="#501313" stroke-width="1.5"/>
  <circle cx="610" cy="66" r="32" fill="none" stroke="#501313" stroke-width="1"/>
  <circle cx="610" cy="66" r="13" fill="#501313"/>
  <circle cx="610" cy="66" r="8"  fill="#3A0D0D"/>
  <rect x="606" y="74" width="8" height="10" rx="1" fill="#3A0D0D"/>
  <rect x="562" y="58" width="16" height="18" rx="2" fill="#791F1F"/>
  <rect x="562" y="60" width="16" height="3" fill="#501313" opacity="0.4"/>
  <rect x="466" y="61" width="98" height="12" rx="2" fill="#A32D2D"/>
  <rect x="466" y="63" width="98" height="4" rx="1" fill="#791F1F"/>
  <rect x="472" y="73" width="10" height="15" rx="1" fill="#791F1F"/>
  <rect x="490" y="73" width="10" height="22" rx="1" fill="#791F1F"/>
  <rect x="508" y="73" width="10" height="11" rx="1" fill="#791F1F"/>
  <rect x="526" y="73" width="10" height="19" rx="1" fill="#791F1F"/>
  <rect x="544" y="73" width="10" height="13" rx="1" fill="#791F1F"/>
  <polygon points="466,61 458,67 466,73" fill="#A32D2D"/>
  <line x1="60" y1="126" x2="650" y2="126" stroke="#A32D2D" stroke-width="0.75"/>
  <text x="340" y="164" font-family="Georgia,serif" font-size="36" font-weight="700" fill="#A32D2D" text-anchor="middle" letter-spacing="2">GREAT WALL</text>
  <text x="340" y="188" font-family="Georgia,serif" font-size="20" font-weight="400" fill="#A32D2D" text-anchor="middle" letter-spacing="8">DISPATCH</text>
  <line x1="180" y1="199" x2="500" y2="199" stroke="#A32D2D" stroke-width="0.5" opacity="0.6"/>
  <text x="340" y="216" font-family="Courier New,monospace" font-size="11" fill="#854F0B" text-anchor="middle" letter-spacing="3">INTELLIGENCE · ANALYSIS · CHINA</text>
</svg>
