<svg xmlns="http://www.w3.org/2000/svg" width="400" height="130" viewBox="0 0 680 220">
  <defs>
    <clipPath id="wallclip">
      <rect x="140" y="20" width="400" height="90"/>
    </clipPath>
  </defs>
  <g clip-path="url(#wallclip)">
    <rect x="140" y="80" width="400" height="30" fill="#A32D2D"/>
    <rect x="148" y="60" width="18" height="22" rx="1" fill="#A32D2D"/>
    <rect x="174" y="60" width="18" height="22" rx="1" fill="#A32D2D"/>
    <rect x="200" y="60" width="18" height="22" rx="1" fill="#A32D2D"/>
    <rect x="226" y="60" width="18" height="22" rx="1" fill="#A32D2D"/>
    <rect x="255" y="28" width="70" height="54" rx="2" fill="#791F1F"/>
    <rect x="258" y="20" width="14" height="12" rx="1" fill="#791F1F"/>
    <rect x="278" y="20" width="14" height="12" rx="1" fill="#791F1F"/>
    <rect x="298" y="20" width="14" height="12" rx="1" fill="#791F1F"/>
    <rect x="278" y="40" width="24" height="20" rx="2" fill="#501313"/>
    <rect x="284" y="58" width="12" height="18" rx="2" fill="#501313"/>
    <rect x="338" y="60" width="18" height="22" rx="1" fill="#A32D2D"/>
    <rect x="364" y="60" width="18" height="22" rx="1" fill="#A32D2D"/>
    <rect x="390" y="60" width="18" height="22" rx="1" fill="#A32D2D"/>
    <rect x="416" y="60" width="18" height="22" rx="1" fill="#A32D2D"/>
    <rect x="442" y="60" width="18" height="22" rx="1" fill="#A32D2D"/>
    <rect x="468" y="60" width="18" height="22" rx="1" fill="#A32D2D"/>
    <rect x="494" y="60" width="18" height="22" rx="1" fill="#A32D2D"/>
    <rect x="520" y="60" width="18" height="22" rx="1" fill="#A32D2D"/>
    <rect x="140" y="108" width="400" height="3" fill="#501313" opacity="0.4"/>
  </g>
  <line x1="140" y1="122" x2="540" y2="122" stroke="#A32D2D" stroke-width="0.75"/>
  <text x="340" y="158" font-family="Georgia,serif" font-size="36" font-weight="700" fill="#A32D2D" text-anchor="middle" letter-spacing="2">GREAT WALL</text>
  <text x="340" y="182" font-family="Georgia,serif" font-size="20" font-weight="400" fill="#A32D2D" text-anchor="middle" letter-spacing="8">DISPATCH</text>
  <line x1="200" y1="193" x2="480" y2="193" stroke="#A32D2D" stroke-width="0.5" opacity="0.6"/>
  <text x="340" y="210" font-family="Courier New,monospace" font-size="11" fill="#854F0B" text-anchor="middle" letter-spacing="3">INTELLIGENCE · ANALYSIS · CHINA</text>
</svg>
